# xmcd
#
# Track frame offsets: 
#        150
#        12723
#        21597
#        28960
#        37493
#        50338
#        57756
#        79608
#        89659
#        97467
#        106418
#        115243
#        126883
#        144486
#        159692
#        166873
#        179140
#        189804
#        201562
#        209914
#        218900
#        227015
#        240598
#        250099
#        258088
#        267192
#        280859
#
# Disc length: 3851 seconds
#
# Revision: 0
# Processed by: cddbd v1.5.2PL0 Copyright (c) Steve Scherf et al.
# Submitted via: ExactAudioCopy v0.99pb5
#
DISCID=a20f091b
DTITLE=Janis Joplin  - Blow My Blues Away CD 1
DYEAR=1900
DGENRE=
TTITLE0=What Good Can Drinkin´ Do
TTITLE1=CC Rider
TTITLE2=San Francisco Bay Blues
TTITLE3=Whining Boy Blues
TTITLE4=Careless Love
TTITLE5=I´ll Drown My Own Tears
TTITLE6=Honky Tonk Angel
TTITLE7=Empty Pillow On My Bed
TTITLE8=Gospel Ship
TTITLE9=Stealing
TTITLE10=Leaving This Morning
TTITLE11=Daddy, Daddy, Daddy
TTITLE12=Careless Love
TTITLE13=Black Mountain Blues
TTITLE14=Trouble In Mind
TTITLE15=What Good Can Drinking Do
TTITLE16=Silver Threads and Golden Needles
TTITLE17=Mississippi River
TTITLE18=Stealing
TTITLE19=No Reason For Living
TTITLE20=Leaving This Morning
TTITLE21=Daddy, Daddy, Daddy
TTITLE22=CC Rider
TTITLE23=San Francisco Bay Blues
TTITLE24=Whining Boy Blues
TTITLE25=Careless Love
TTITLE26=I´ll Drown My Own Tears
EXTD=
EXTT0=
EXTT1=
EXTT2=
EXTT3=
EXTT4=
EXTT5=
EXTT6=
EXTT7=
EXTT8=
EXTT9=
EXTT10=
EXTT11=
EXTT12=
EXTT13=
EXTT14=
EXTT15=
EXTT16=
EXTT17=
EXTT18=
EXTT19=
EXTT20=
EXTT21=
EXTT22=
EXTT23=
EXTT24=
EXTT25=
EXTT26=
PLAYORDER=
